<svg xmlns="http://www.w3.org/2000/svg" viewBox="0 0 512.01 512.09"><defs><style>.cls-1{fill:#fff;}</style></defs><title>Recurso 1</title><g id="Capa_2" data-name="Capa 2"><g id="Layer_1" data-name="Layer 1"><path class="cls-1" d="M312.41,199.6a116.2,116.2,0,0,0-20.05-16.13A119.48,119.48,0,0,0,143.45,199.6L34.91,308.23a119.47,119.47,0,0,0,168.88,169l89.6-89.6a8.53,8.53,0,0,0-6.06-14.59h-3.42A143.57,143.57,0,0,1,229.3,362.5a8.54,8.54,0,0,0-9.3,1.88l-64.43,64.51a51.23,51.23,0,0,1-72.45-72.45l109-108.88a51.19,51.19,0,0,1,72.36,0,35,35,0,0,0,48,0,33.82,33.82,0,0,0,0-48Z"/><path class="cls-1" d="M477,35a119.49,119.49,0,0,0-169,0l-89.51,89.43A8.57,8.57,0,0,0,224.78,139h3.15a143.41,143.41,0,0,1,54.53,10.67,8.52,8.52,0,0,0,9.3-1.88L356,83.63a51.23,51.23,0,0,1,72.45,72.45l-80.05,80-.68.77-28,27.81a51.19,51.19,0,0,1-72.36,0,35,35,0,0,0-48,0,34,34,0,0,0,0,48.13,118.57,118.57,0,0,0,34.13,23.9c1.8.85,3.59,1.53,5.38,2.3s3.67,1.36,5.46,2.05,3.67,1.28,5.46,1.79l5,1.36c3.41.86,6.82,1.54,10.32,2.14a120.51,120.51,0,0,0,12.72,1.19h6.48l5.12-.59c1.88-.09,3.84-.52,6.06-.52h2.9l5.89-.85,2.73-.51,4.95-1H313a119.37,119.37,0,0,0,55.38-31.4L477,204A119.47,119.47,0,0,0,477,35Z"/></g></g></svg>