<svg xmlns="http://www.w3.org/2000/svg" viewBox="0 0 669.3 87.65"><defs><style>.cls-1{fill:#8f1941;}.cls-2{fill:#00a8ab;}</style></defs><title>Recurso 2</title><g id="Capa_2" data-name="Capa 2"><g id="Layer_1" data-name="Layer 1"><path class="cls-1" d="M656.41,74.81l-5.15-12.75-5.2,12.75-2.44,6L641,87.13H633.4l14.25-32.8h7.64l14,32.8h-7.92l-2.58-6.37Z"/><path class="cls-1" d="M241.42,54.33h27.42v6.28h-10V87.13H251.4V60.61h-10Z"/><path class="cls-1" d="M302.77,56a16.75,16.75,0,0,1,0,29.4,19.08,19.08,0,0,1-17.9,0,16.74,16.74,0,0,1,0-29.4,19.29,19.29,0,0,1,17.93,0Zm-13.92,5.64a10.07,10.07,0,0,0-3.7,3.77,10.84,10.84,0,0,0,0,10.55,10.61,10.61,0,0,0,3.7,3.8,9.63,9.63,0,0,0,5,1.4,9.42,9.42,0,0,0,5-1.38,10,10,0,0,0,3.61-3.8,10.81,10.81,0,0,0,1.34-5.32,10.62,10.62,0,0,0-1.34-5.25,10.06,10.06,0,0,0-3.61-3.77,9.42,9.42,0,0,0-5-1.38A9.8,9.8,0,0,0,288.85,61.66Z"/><path class="cls-1" d="M344,87.13l-5.2-9.37h-7.54v9.37h-7.41V54.33h14.25q6.42,0,9.93,3c2.35,2,3.52,4.79,3.52,8.42a12.76,12.76,0,0,1-1.57,6.49,10.15,10.15,0,0,1-4.57,4.1l7,10.82ZM331.22,71.57h6.84a7.07,7.07,0,0,0,4.75-1.42,5.25,5.25,0,0,0,1.67-4.2,5,5,0,0,0-1.67-4.1,7.23,7.23,0,0,0-4.75-1.38h-6.84Z"/><path class="cls-1" d="M385.39,87.13l-5.2-9.37h-7.55v9.37h-7.4V54.33h14.25q6.42,0,9.93,3c2.35,2,3.52,4.79,3.52,8.42a12.76,12.76,0,0,1-1.57,6.49,10.15,10.15,0,0,1-4.57,4.1l7,10.82ZM372.64,71.57h6.85a7.09,7.09,0,0,0,4.75-1.42,5.25,5.25,0,0,0,1.67-4.2,5,5,0,0,0-1.67-4.1,7.25,7.25,0,0,0-4.75-1.38h-6.85Z"/><path class="cls-1" d="M406.67,54.33h25v6.14H414.07v7.12h15.8v6.14h-15.8V81h18.09v6.14H406.67Z"/><path class="cls-1" d="M488.17,56a16.75,16.75,0,0,1,0,29.4,19.1,19.1,0,0,1-17.91,0,16.51,16.51,0,0,1-8.67-14.74A16.45,16.45,0,0,1,470.24,56a19.29,19.29,0,0,1,17.93,0Zm-13.92,5.64a10.07,10.07,0,0,0-3.7,3.77,10.65,10.65,0,0,0,3.72,14.35,9.63,9.63,0,0,0,5,1.4,9.45,9.45,0,0,0,5-1.38,10,10,0,0,0,3.61-3.8,10.8,10.8,0,0,0,1.33-5.32,10.62,10.62,0,0,0-1.33-5.25,10.06,10.06,0,0,0-3.61-3.77,9.45,9.45,0,0,0-5-1.38A9.8,9.8,0,0,0,474.25,61.66Z"/><path class="cls-1" d="M528.17,61.43a10,10,0,0,0-4.57-1.15,9.84,9.84,0,0,0-8.67,5.06,10.41,10.41,0,0,0-1.31,5.2,10.55,10.55,0,0,0,1.31,5.23,9.78,9.78,0,0,0,3.61,3.75,9.62,9.62,0,0,0,5.06,1.38,10.57,10.57,0,0,0,4.47-1.05A14.16,14.16,0,0,0,532.13,77l4.36,4.73a19.79,19.79,0,0,1-6.17,4.32,17.17,17.17,0,0,1-7.1,1.59,17.4,17.4,0,0,1-8.76-2.23,16.22,16.22,0,0,1-6.19-6.11A17,17,0,0,1,506,70.64,16.37,16.37,0,0,1,514.62,56a18.11,18.11,0,0,1,8.88-2.21,18.55,18.55,0,0,1,12.94,5.49l-4.31,5.29A12.52,12.52,0,0,0,528.17,61.43Z"/><path class="cls-1" d="M617,56a16.75,16.75,0,0,1,0,29.4,19.08,19.08,0,0,1-17.9,0,16.74,16.74,0,0,1,0-29.4A19.29,19.29,0,0,1,617,56Zm-13.92,5.64a10.07,10.07,0,0,0-3.7,3.77,10.84,10.84,0,0,0,0,10.55,10.61,10.61,0,0,0,3.7,3.8,9.63,9.63,0,0,0,5,1.4,9.42,9.42,0,0,0,5-1.38,10,10,0,0,0,3.61-3.8,10.81,10.81,0,0,0,1.34-5.32,10.62,10.62,0,0,0-1.34-5.25,10.06,10.06,0,0,0-3.61-3.77,9.42,9.42,0,0,0-5-1.38A9.8,9.8,0,0,0,603.08,61.66Z"/><polygon class="cls-1" points="570.65 54.33 570.65 68.01 560.34 68.01 560.34 74.2 570.65 74.2 570.65 87.13 578.05 87.13 578.05 54.33 570.65 54.33"/><rect class="cls-1" x="548.39" y="54.33" width="7.4" height="32.81"/><path class="cls-1" d="M243.13,8.32h8.25l10.21,20.16L271.72,8.32h8.2V41.13h-6.66V19L263.94,37.8h-4.78L249.78,19V41.13h-6.65Z"/><path class="cls-1" d="M313.94,28.8l-5.15-12.74-5.2,12.74-2.44,6-2.58,6.37h-7.64L305.18,8.32h7.64l14,32.81h-7.92l-2.58-6.37Z"/><path class="cls-1" d="M615.7,29.8l-5.15-12.74-5.2,12.74-2.44,6-2.58,6.37h-7.64L606.94,9.32h7.64l14,32.81h-7.92l-2.58-6.37Z"/><path class="cls-1" d="M357.9,41.13l-5.2-9.37h-7.55v9.37h-7.4V8.32H352q6.42,0,9.93,3c2.35,2,3.52,4.79,3.52,8.41a12.73,12.73,0,0,1-1.57,6.49,10,10,0,0,1-4.57,4.1l7,10.83ZM345.15,25.57H352a7.09,7.09,0,0,0,4.75-1.43A5.22,5.22,0,0,0,358.42,20a5,5,0,0,0-1.67-4.1A7.2,7.2,0,0,0,352,14.46h-6.85Z"/><path class="cls-1" d="M379.18,7.81h7.4V41.65h-7.4Z"/><path class="cls-1" d="M485,11.41a15.11,15.11,0,0,1,6.12,5.81,16.56,16.56,0,0,1,2.18,8.51,16.29,16.29,0,0,1-2.23,8.5A15.28,15.28,0,0,1,484.81,40a19.31,19.31,0,0,1-9.09,2.09H462.08V9.32H476A18.82,18.82,0,0,1,485,11.41Zm-3.86,23.2A9,9,0,0,0,484.48,31a10.94,10.94,0,0,0,1.22-5.25,10.76,10.76,0,0,0-1.29-5.29,9.22,9.22,0,0,0-3.51-3.63,9.9,9.9,0,0,0-5-1.29h-6.37V35.9h6.7A9.46,9.46,0,0,0,481.09,34.61Z"/><path class="cls-1" d="M505.62,9.32h25v6.14H513v7.13h15.8v6.14H513V36h18.09v6.14H505.62Z"/><path class="cls-1" d="M562.89,9.32h7.4V35.66h14.06v6.47H562.89Z"/><path class="cls-2" d="M408.78,22.41a3,3,0,0,1-1.17,1.27,18.11,18.11,0,0,1-2.24,1,15.25,15.25,0,0,1,2.24,1.05A3.08,3.08,0,0,1,408.78,27a5.19,5.19,0,0,1,.41,2.26v5.14a2.37,2.37,0,0,0,.74,2,4.86,4.86,0,0,0,2.76.56v4.64h-2.3a11.5,11.5,0,0,1-3.87-.53,3.68,3.68,0,0,1-2.06-1.68,6.4,6.4,0,0,1-.65-3.13v-7.4a2.18,2.18,0,0,0-.35-1.4,1.44,1.44,0,0,0-1.17-.43h-1.4V22.33h1.4a1.43,1.43,0,0,0,1.17-.41,2.08,2.08,0,0,0,.35-1.38v-7.4a6.4,6.4,0,0,1,.65-3.13,3.68,3.68,0,0,1,2.06-1.68,11.53,11.53,0,0,1,3.87-.52h2.3v4.63a4.76,4.76,0,0,0-2.76.57,2.34,2.34,0,0,0-.74,2v5.14A5.19,5.19,0,0,1,408.78,22.41Z"/><path class="cls-2" d="M432.35,22.33v4.75H431a1.47,1.47,0,0,0-1.17.43,2.24,2.24,0,0,0-.35,1.4v7.4a6.4,6.4,0,0,1-.64,3.13,3.75,3.75,0,0,1-2.06,1.68,11.53,11.53,0,0,1-3.88.53h-2.29V37a4.86,4.86,0,0,0,2.76-.56,2.4,2.4,0,0,0,.74-2V29.3a5.19,5.19,0,0,1,.41-2.26,3.08,3.08,0,0,1,1.17-1.28,14.76,14.76,0,0,1,2.24-1.05,17.43,17.43,0,0,1-2.24-1,3,3,0,0,1-1.17-1.27,5.19,5.19,0,0,1-.41-2.26V15a2.37,2.37,0,0,0-.74-2,4.76,4.76,0,0,0-2.76-.57V7.81h2.29a11.56,11.56,0,0,1,3.88.52A3.75,3.75,0,0,1,428.79,10a6.4,6.4,0,0,1,.64,3.13v7.4a2.14,2.14,0,0,0,.35,1.38,1.46,1.46,0,0,0,1.17.41Z"/><polygon class="cls-2" points="180.16 86.71 170.15 78.52 198.61 43.73 170.1 8.08 180.2 0 215.24 43.83 180.16 86.71"/><polygon class="cls-2" points="35.09 86.71 0 43.83 35.04 0 45.14 8.08 16.64 43.73 45.09 78.52 35.09 86.71"/><polygon class="cls-1" points="63.49 50.01 63.49 78.17 78.42 78.17 78.42 64.94 63.49 50.01"/><polygon class="cls-1" points="107.66 52.45 107.62 52.48 107.59 52.45 63.49 8.54 63.49 29.34 107.59 73.24 107.59 73.32 107.61 73.34 107.61 73.34 107.61 73.34 107.62 73.32 107.64 73.34 107.64 73.34 107.64 73.34 136.82 44.15 136.82 78.17 151.75 78.17 151.75 8.54 107.66 52.45"/></g></g></svg>